<?xml version="1.0" standalone="no"?>
<!DOCTYPE svg PUBLIC "-//W3C//DTD SVG 20010904//EN"
 "http://www.w3.org/TR/2001/REC-SVG-20010904/DTD/svg10.dtd">
<svg version="1.0" xmlns="http://www.w3.org/2000/svg"
 width="42.000000pt" height="41.000000pt" viewBox="0 0 42.000000 41.000000"
 preserveAspectRatio="xMidYMid meet">

<g transform="translate(0.000000,41.000000) scale(0.100000,-0.100000)"
fill="#E51F1E" stroke="none">
<path d="M0 205 l0 -205 210 0 210 0 0 205 0 205 -210 0 -210 0 0 -205z m260
57 c0 -5 -7 -15 -15 -22 -20 -17 -10 -30 25 -30 33 0 48 16 31 33 -14 14 -14
37 0 37 6 0 17 7 26 15 8 9 17 14 20 12 4 -5 -14 -127 -20 -134 -7 -6 -219 -4
-226 2 -9 10 -28 135 -20 135 4 0 12 -7 19 -15 7 -8 19 -15 26 -15 16 0 19
-26 4 -35 -22 -13 -10 -35 19 -35 36 0 46 13 30 37 -9 15 -6 26 11 56 l23 38
23 -35 c13 -19 24 -39 24 -44z m84 -149 c4 -14 5 -27 3 -30 -6 -5 -259 -5
-265 1 -2 3 -2 16 2 30 l6 25 124 0 124 0 6 -26z"/>
</g>
</svg>
