<?xml version="1.0" encoding="UTF-8"?>
<!DOCTYPE svg PUBLIC "-//W3C//DTD SVG 1.1//EN" "http://www.w3.org/Graphics/SVG/1.1/DTD/svg11.dtd">
<!-- Creator: CorelDRAW X7 -->
<svg xmlns="http://www.w3.org/2000/svg" xml:space="preserve" version="1.1" style="shape-rendering:geometricPrecision; text-rendering:geometricPrecision; image-rendering:optimizeQuality; fill-rule:evenodd; clip-rule:evenodd"
viewBox="15000 8000 1 5000" height="30" width="145"
 xmlns:xlink="http://www.w3.org/1999/xlink">
 <defs>
  <style type="text/css">
   <![CDATA[
    .fil0 {fill:#fff;fill-rule:nonzero}
	.fil1 {fill:#2eadf5;fill-rule:nonzero}
   ]]>
  </style>
 </defs>
 <g id="Warstwa_x0020_1">
  <metadata id="CorelCorpID_0Corel-Layer"/>
  <g id="_3205575720528">
   <path class="fil0" d="M3240 8438l1060 0 0 3352c95,24 236,36 401,36l-12 801c-153,29 -330,53 -601,53 -553,0 -848,-118 -848,-801l0 -3441z"/>
   <path class="fil0" d="M6107 11790c94,24 201,36 330,36l-12 801c-153,35 -341,53 -648,53 -530,0 -730,-141 -730,-625l0 -2262 1060 0 0 1997zm-530 -2256c-371,0 -636,-236 -636,-613 0,-377 265,-613 636,-613 383,0 636,236 636,613 0,377 -253,613 -636,613z"/>
   <path class="fil0" d="M8860 11195c0,-394 -189,-589 -459,-589 -307,0 -472,189 -472,483l0 637c71,47 200,94 389,94 365,0 542,-224 542,-625zm1072 -23c0,895 -495,1520 -1697,1520 -600,0 -1013,-106 -1366,-295l0 -3959 1060 0 0 1550c183,-159 430,-254 766,-254 719,0 1237,460 1237,1438z"/>
   <path class="fil0" d="M11878 9734c-300,0 -530,165 -683,437 -147,-272 -377,-437 -695,-437 -75,0 -142,5 -200,12l0 2875 1060 0 0 -1213c0,-596 283,-695 484,-695 153,0 235,22 294,46l59 -977c-35,-18 -141,-48 -319,-48z"/>
   <path class="fil0" d="M14472 11337l0 -554c-113,-94 -266,-177 -472,-177 -330,0 -530,201 -530,636 0,401 212,578 495,578 295,0 507,-153 507,-483zm1390 501l-12 795c-70,18 -224,47 -459,47 -336,0 -572,-136 -725,-377 -189,230 -495,389 -937,389 -754,0 -1272,-519 -1272,-1450 0,-942 601,-1508 1437,-1508 301,0 536,71 719,165l35 -106 884 0 0 2009c94,24 177,36 330,36z"/>
   <path class="fil1" d="M16960 9028c9,-8 19,-15 28,-22 24,-19 49,-38 75,-54 12,-9 24,-17 37,-24 35,-21 71,-41 109,-58 2,0 2,-1 4,-2l72 -31 0 4c105,-36 217,-57 333,-57l222 0 693 990 0 -990 467 0c-3,-7 -7,-12 -11,-18 -13,-24 -28,-47 -43,-69 -8,-11 -16,-21 -24,-32 -15,-19 -31,-38 -47,-56 -8,-8 -15,-16 -22,-24 -25,-25 -51,-49 -78,-71 -3,-3 -7,-6 -11,-8 -25,-20 -51,-39 -78,-56 -7,-4 -14,-8 -21,-12 -27,-17 -55,-31 -83,-45 -5,-2 -9,-4 -14,-6 -34,-15 -69,-29 -105,-40 -3,0 -6,-1 -9,-2 -31,-9 -63,-16 -95,-22 -11,-2 -22,-3 -33,-5 -26,-3 -52,-6 -79,-7 -16,-1 -32,-3 -48,-3 -572,0 -1070,323 -1320,797 25,-27 52,-53 81,-77z"/>
   <path class="fil1" d="M18896 8481c197,186 320,449 320,741l0 1381c5,-3 9,-6 13,-8 26,-15 51,-31 75,-48 10,-7 20,-14 29,-22 21,-16 41,-32 60,-50 7,-7 15,-13 22,-19 25,-25 50,-52 72,-80 2,-2 3,-4 5,-6 21,-27 41,-55 59,-84 4,-5 7,-11 11,-17 17,-28 32,-58 46,-88 2,-3 4,-6 5,-9 16,-36 29,-71 40,-108 0,-1 0,-2 1,-3 10,-33 17,-67 23,-102 2,-9 3,-19 5,-28 4,-28 6,-56 8,-84 1,-15 2,-30 2,-46 0,-571 -323,-1069 -796,-1320z"/>
   <path class="fil1" d="M18778 10819l-220 0 -693 -991 0 991 -467 0c2,5 6,9 8,14 15,26 30,50 47,73 7,10 15,20 23,30 15,21 32,40 49,59 6,7 13,15 20,22 25,26 51,50 79,72 2,2 5,4 7,6 27,21 54,40 82,58 6,4 13,8 19,11 28,17 56,32 86,46 4,2 8,4 12,5 34,16 69,29 106,40 2,1 4,1 7,2 31,9 64,17 97,22 10,2 21,4 31,5 27,4 53,6 81,8 15,1 31,2 47,2 572,0 1070,-323 1320,-796 -186,197 -449,321 -741,321z"/>
   <path class="fil1" d="M17502 11121c-197,-185 -320,-449 -320,-740l0 -1382c-283,155 -467,452 -476,777l0 25c0,572 323,1070 796,1320z"/>
   <path class="fil1" d="M20345 9027c8,-7 16,-13 24,-19 25,-21 51,-39 79,-57 11,-8 23,-16 35,-23 36,-21 72,-41 111,-58 1,0 1,-1 2,-2l73 -31 0 4c105,-37 217,-57 335,-57l1380 0c-3,-6 -7,-12 -11,-18 -13,-24 -28,-47 -44,-69 -7,-11 -15,-21 -23,-32 -15,-19 -31,-38 -48,-56 -7,-8 -14,-16 -22,-24 -24,-25 -50,-49 -77,-72 -3,-2 -7,-4 -10,-7 -26,-20 -52,-39 -80,-56 -6,-4 -13,-8 -20,-12 -27,-17 -55,-31 -84,-45 -4,-2 -9,-4 -13,-6 -34,-15 -70,-29 -106,-40 -2,0 -5,-1 -7,-2 -32,-9 -64,-16 -97,-22 -10,-2 -21,-3 -32,-5 -26,-3 -53,-6 -79,-7 -16,-1 -32,-3 -48,-3 -572,0 -1069,323 -1320,797 25,-28 53,-53 82,-78z"/>
   <path class="fil1" d="M20886 11121c-27,-25 -53,-53 -78,-82 -6,-8 -12,-16 -18,-23 -21,-26 -40,-52 -58,-80 -7,-11 -15,-23 -22,-35 -22,-36 -42,-72 -59,-111 0,-1 -1,-1 -1,-2l-32 -73 5 0c-37,-105 -58,-217 -58,-334l0 -1382c-282,155 -466,452 -475,777l0 25c0,572 323,1070 796,1320z"/>
   <path class="fil1" d="M22822 10575c-9,7 -18,14 -27,21 -25,20 -50,38 -77,56 -12,7 -23,15 -35,22 -36,22 -73,42 -112,59 0,0 -1,1 -2,1l-72 32 0 -5c-105,37 -218,58 -335,58l-1381 0c155,282 451,466 776,475l26 0c572,0 1069,-323 1320,-796 -26,27 -53,53 -81,77z"/>
   <path class="fil1" d="M22280 8481c197,186 320,449 320,740l0 134 -1351 0 0 161 1351 0 0 571 -1351 0 0 160 1351 0 0 356c283,-155 467,-451 475,-776l1 -26c0,-571 -323,-1069 -796,-1320z"/>
   <path class="fil1" d="M23728 9028c9,-8 18,-14 27,-22 25,-19 50,-38 76,-55 12,-8 24,-16 37,-23 35,-21 72,-41 110,-58 1,0 2,-1 3,-2l72 -31 0 4c105,-36 217,-57 335,-57l1380 0c-3,-7 -7,-12 -11,-18 -13,-24 -28,-47 -43,-69 -8,-11 -16,-21 -24,-32 -15,-19 -31,-38 -47,-56 -8,-8 -15,-16 -22,-24 -25,-25 -51,-49 -78,-71 -3,-3 -7,-6 -11,-8 -25,-20 -51,-39 -78,-56 -7,-4 -14,-8 -21,-13 -27,-16 -55,-30 -83,-44 -5,-2 -9,-4 -14,-6 -34,-15 -69,-29 -105,-40 -3,0 -6,-1 -9,-2 -31,-9 -63,-16 -95,-22 -11,-2 -22,-3 -33,-5 -26,-3 -52,-6 -79,-7 -16,-1 -32,-3 -48,-3 -572,0 -1069,323 -1320,796 25,-27 53,-52 81,-76z"/>
   <path class="fil1" d="M26105 10650c-26,17 -53,34 -81,49 -6,2 -11,6 -17,9l-14 8c-6,3 -12,5 -18,7 -22,10 -44,19 -67,28 -11,4 -22,9 -34,13 -24,8 -48,15 -72,21 -12,3 -24,7 -36,9 -23,6 -48,9 -72,13 -12,2 -25,4 -37,6 -36,4 -73,6 -111,6l-341 0 -580 0 0 -1447c-160,58 -572,278 -572,1009 0,31 2,62 5,93 2,18 5,35 8,52 2,13 3,26 6,39 3,16 8,32 12,47 4,14 7,28 11,42 5,15 11,28 16,43 5,14 10,29 16,43 8,17 16,34 25,50 12,24 25,48 39,70 6,10 12,21 18,31 19,27 38,52 59,77 12,14 25,28 38,41 11,12 22,23 34,34 15,14 29,28 45,41 13,11 26,20 39,30 26,19 53,37 80,53 15,9 30,17 46,26 16,7 31,15 47,22 23,10 46,19 70,28 12,4 23,8 35,12 32,9 65,17 99,23 11,2 23,4 34,6 28,4 57,6 86,8 15,1 30,2 46,2 572,0 1069,-323 1320,-796 -10,10 -21,20 -31,30 -11,11 -22,23 -34,33 -29,26 -59,50 -90,72 -9,6 -18,11 -27,17z"/>
   <path class="fil1" d="M25664 8481c197,186 321,449 321,741l0 133 -676 0 0 1360 237 0c138,0 271,-30 394,-89l33 42 -23 -47 11 -5c298,-152 489,-455 499,-789l0 -26c0,-571 -323,-1069 -796,-1320z"/>
   <path class="fil1" d="M23950 10381c0,-606 274,-894 483,-1026l-380 0 -103 0 0 -104 0 -252c-283,155 -467,452 -476,777l0 25c0,572 323,1070 796,1320 -197,-185 -320,-449 -320,-740z"/>
  </g>
 </g>
</svg>
