<?xml version="1.0" encoding="UTF-8" standalone="no"?>
<svg
   xmlns:dc="http://purl.org/dc/elements/1.1/"
   xmlns:cc="http://creativecommons.org/ns#"
   xmlns:rdf="http://www.w3.org/1999/02/22-rdf-syntax-ns#"
   xmlns:svg="http://www.w3.org/2000/svg"
   xmlns="http://www.w3.org/2000/svg"
   xml:space="preserve"
   enable-background="new 0 0 425.197 170.079"
   viewBox="0 0 340.486 64.275004"
   height="64.275002"
   width="340.48599"
   y="0px"
   x="0px"
   id="Warstwa_1"
   version="1.1"><metadata
     id="metadata233"><rdf:RDF><cc:Work
         rdf:about=""><dc:format>image/svg+xml</dc:format><dc:type
           rdf:resource="http://purl.org/dc/dcmitype/StillImage" /><dc:title></dc:title></cc:Work></rdf:RDF></metadata><defs
     id="defs231" /><g
     transform="translate(-42.356,-52.902)"
     id="g3"><g
       id="g5"><g
         id="g7"><polygon
           style="fill:#ffffff"
           id="polygon9"
           points="248.025,61.111 248.025,88.475 256.233,88.475 256.233,72.839 267.181,88.475 275.39,88.475 275.39,61.111 267.181,61.111 267.181,76.747 256.233,61.111 " /><linearGradient
           y2="64.824203"
           x2="274.24899"
           y1="64.824203"
           x1="239.8154"
           gradientUnits="userSpaceOnUse"
           id="SVGID_1_"><stop
             id="stop12"
             style="stop-color:#40B5E4"
             offset="0" /><stop
             id="stop14"
             style="stop-color:#41AFE0"
             offset="0.1135" /><stop
             id="stop16"
             style="stop-color:#459DD3"
             offset="0.3203" /><stop
             id="stop18"
             style="stop-color:#4B7FBC"
             offset="0.597" /><stop
             id="stop20"
             style="stop-color:#51519A"
             offset="0.9298" /><stop
             id="stop22"
             style="stop-color:#524794"
             offset="1" /></linearGradient><path
           style="fill:url(#SVGID_1_)"
           id="path24"
           d="m 274.249,61.111 c -2.063,-4.723 -6.715,-8.056 -12.161,-8.205 -0.128,-10e-4 -0.253,-0.004 -0.381,-0.004 -12.09,0 -21.892,9.801 -21.892,21.891 0,-7.55 6.117,-13.673 13.666,-13.682 l 2.752,0 10.947,15.636 0,-15.636 3.891,0 0,0 3.178,0 z" /><linearGradient
           y2="52.901901"
           x2="272.6528"
           y1="87.334503"
           x1="272.6528"
           gradientUnits="userSpaceOnUse"
           id="SVGID_2_"><stop
             id="stop27"
             style="stop-color:#A8143E"
             offset="0" /><stop
             id="stop29"
             style="stop-color:#AC123E"
             offset="0.0307" /><stop
             id="stop31"
             style="stop-color:#C1083F"
             offset="0.2677" /><stop
             id="stop33"
             style="stop-color:#D0003F"
             offset="0.5077" /><stop
             id="stop35"
             style="stop-color:#D90040"
             offset="0.7504" /><stop
             id="stop37"
             style="stop-color:#DC0040"
             offset="1" /></linearGradient><path
           style="fill:url(#SVGID_2_)"
           id="path39"
           d="m 283.593,75.173 c 0.002,-0.127 0.006,-0.253 0.006,-0.38 0,-12.09 -9.801,-21.891 -21.892,-21.891 7.557,0 13.683,6.125 13.683,13.682 l 0,20.75 c 4.721,-2.062 8.054,-6.714 8.203,-12.161 z" /><linearGradient
           y2="84.761703"
           x2="283.5986"
           y1="84.761703"
           x1="249.16499"
           gradientUnits="userSpaceOnUse"
           id="SVGID_3_"><stop
             id="stop42"
             style="stop-color:#59A827"
             offset="0" /><stop
             id="stop44"
             style="stop-color:#6CAD23"
             offset="0.0914" /><stop
             id="stop46"
             style="stop-color:#91B914"
             offset="0.3358" /><stop
             id="stop48"
             style="stop-color:#A8C100"
             offset="0.5734" /><stop
             id="stop50"
             style="stop-color:#B5C600"
             offset="0.7991" /><stop
             id="stop52"
             style="stop-color:#B9C800"
             offset="1" /></linearGradient><path
           style="fill:url(#SVGID_3_)"
           id="path54"
           d="m 269.917,88.475 -2.736,0 -10.947,-15.636 0,15.636 -7.068,0 c 2.063,4.723 6.715,8.056 12.162,8.205 0.127,10e-4 0.253,0.004 0.38,0.004 12.091,0 21.892,-9.801 21.892,-21.891 -0.001,7.556 -6.128,13.682 -13.683,13.682 z" /><linearGradient
           y2="62.2495"
           x2="250.7612"
           y1="96.684097"
           x1="250.7612"
           gradientUnits="userSpaceOnUse"
           id="SVGID_4_"><stop
             id="stop57"
             style="stop-color:#FECE00"
             offset="0" /><stop
             id="stop59"
             style="stop-color:#FDCB00"
             offset="0.1593" /><stop
             id="stop61"
             style="stop-color:#FBC100"
             offset="0.3382" /><stop
             id="stop63"
             style="stop-color:#F7B200"
             offset="0.5266" /><stop
             id="stop65"
             style="stop-color:#F29A00"
             offset="0.7217" /><stop
             id="stop67"
             style="stop-color:#EC7902"
             offset="0.92" /><stop
             id="stop69"
             style="stop-color:#EA690B"
             offset="1" /></linearGradient><path
           style="fill:url(#SVGID_4_)"
           id="path71"
           d="m 239.821,74.413 c -0.002,0.126 -0.006,0.253 -0.006,0.38 0,12.09 9.802,21.891 21.892,21.891 -7.556,0 -13.682,-6.125 -13.682,-13.682 l 0,-20.752 c -4.723,2.064 -8.055,6.716 -8.204,12.163 z" /></g><g
         id="g73"><polygon
           style="fill:#ffffff"
           id="polygon75"
           points="302.862,61.111 297.644,61.111 297.644,88.475 302.862,88.475 305.853,88.475 325.007,88.475 325.007,81.853 305.853,81.853 305.853,78.104 325.007,78.104 325.007,71.482 305.853,71.482 305.853,67.732 325.007,67.732 325.007,61.111 305.853,61.111 " /><linearGradient
           y2="63.847698"
           x2="323.86819"
           y1="63.847698"
           x1="289.43359"
           gradientUnits="userSpaceOnUse"
           id="SVGID_5_"><stop
             id="stop78"
             style="stop-color:#DC0040"
             offset="0" /><stop
             id="stop80"
             style="stop-color:#D90040"
             offset="0.2496" /><stop
             id="stop82"
             style="stop-color:#D0003F"
             offset="0.4923" /><stop
             id="stop84"
             style="stop-color:#C1083F"
             offset="0.7323" /><stop
             id="stop86"
             style="stop-color:#AC123E"
             offset="0.9693" /><stop
             id="stop88"
             style="stop-color:#A8143E"
             offset="1" /></linearGradient><path
           style="fill:url(#SVGID_5_)"
           id="path90"
           d="m 311.706,52.906 c -0.127,-10e-4 -0.254,-0.004 -0.381,-0.004 -12.09,0 -21.892,9.801 -21.892,21.891 0,-7.556 6.126,-13.682 13.683,-13.682 l 20.752,0 c -2.064,-4.723 -6.716,-8.056 -12.162,-8.205 z" /><linearGradient
           y2="62.2495"
           x2="300.37939"
           y1="96.684097"
           x1="300.37939"
           gradientUnits="userSpaceOnUse"
           id="SVGID_6_"><stop
             id="stop93"
             style="stop-color:#40B5E4"
             offset="0" /><stop
             id="stop95"
             style="stop-color:#41AFE0"
             offset="0.1135" /><stop
             id="stop97"
             style="stop-color:#459DD3"
             offset="0.3203" /><stop
             id="stop99"
             style="stop-color:#4B7FBC"
             offset="0.597" /><stop
             id="stop101"
             style="stop-color:#51519A"
             offset="0.9298" /><stop
             id="stop103"
             style="stop-color:#524794"
             offset="1" /></linearGradient><path
           style="fill:url(#SVGID_6_)"
           id="path105"
           d="m 289.44,74.413 c -0.003,0.126 -0.007,0.253 -0.007,0.38 0,12.09 9.802,21.891 21.892,21.891 -7.557,0 -13.682,-6.125 -13.682,-13.682 l 0,-20.752 c -4.722,2.064 -8.056,6.716 -8.203,12.163 z" /><linearGradient
           y2="85.738297"
           x2="333.21579"
           y1="85.738297"
           x1="298.7822"
           gradientUnits="userSpaceOnUse"
           id="SVGID_7_"><stop
             id="stop108"
             style="stop-color:#EA690B"
             offset="0" /><stop
             id="stop110"
             style="stop-color:#EC7902"
             offset="0.08" /><stop
             id="stop112"
             style="stop-color:#F29A00"
             offset="0.2783" /><stop
             id="stop114"
             style="stop-color:#F7B200"
             offset="0.4734" /><stop
             id="stop116"
             style="stop-color:#FBC100"
             offset="0.6618" /><stop
             id="stop118"
             style="stop-color:#FDCB00"
             offset="0.8407" /><stop
             id="stop120"
             style="stop-color:#FECE00"
             offset="1" /></linearGradient><path
           style="fill:url(#SVGID_7_)"
           id="path122"
           d="m 310.944,96.68 c 0.127,10e-4 0.254,0.004 0.381,0.004 12.09,0 21.891,-9.801 21.891,-21.891 0,7.556 -6.125,13.682 -13.682,13.682 l -20.752,0 c 2.065,4.723 6.716,8.056 12.162,8.205 z" /><linearGradient
           y2="52.901901"
           x2="319.53421"
           y1="87.334503"
           x1="319.53421"
           gradientUnits="userSpaceOnUse"
           id="SVGID_8_"><stop
             id="stop125"
             style="stop-color:#59A827"
             offset="0" /><stop
             id="stop127"
             style="stop-color:#6CAD23"
             offset="0.0914" /><stop
             id="stop129"
             style="stop-color:#91B914"
             offset="0.3358" /><stop
             id="stop131"
             style="stop-color:#A8C100"
             offset="0.5734" /><stop
             id="stop133"
             style="stop-color:#B5C600"
             offset="0.7991" /><stop
             id="stop135"
             style="stop-color:#B9C800"
             offset="1" /></linearGradient><path
           style="fill:url(#SVGID_8_)"
           id="path137"
           d="m 311.325,52.902 c 7.553,0 13.676,6.119 13.682,13.67 l 0,1.16 -19.154,0 0,3.75 19.154,0 0,6.621 -19.154,0 0,3.749 19.154,0 0,2.276 0,0 0,3.206 c 4.723,-2.063 8.056,-6.714 8.204,-12.161 0.003,-0.127 0.005,-0.253 0.005,-0.38 0,-12.09 -9.801,-21.891 -21.891,-21.891 z" /></g><g
         id="g139"><polygon
           style="fill:#ffffff"
           id="polygon141"
           points="347.267,61.111 347.267,67.732 356.843,67.732 356.843,88.475 365.054,88.475 365.054,67.732 374.631,67.732 374.631,61.111 365.054,61.111 356.843,61.111 " /><linearGradient
           y2="63.847698"
           x2="373.49121"
           y1="63.847698"
           x1="339.05759"
           gradientUnits="userSpaceOnUse"
           id="SVGID_9_"><stop
             id="stop144"
             style="stop-color:#B9C800"
             offset="0" /><stop
             id="stop146"
             style="stop-color:#B5C600"
             offset="0.2009" /><stop
             id="stop148"
             style="stop-color:#A8C100"
             offset="0.4266" /><stop
             id="stop150"
             style="stop-color:#91B914"
             offset="0.6642" /><stop
             id="stop152"
             style="stop-color:#6CAD23"
             offset="0.9086" /><stop
             id="stop154"
             style="stop-color:#59A827"
             offset="1" /></linearGradient><path
           style="fill:url(#SVGID_9_)"
           id="path156"
           d="m 361.329,52.906 c -0.127,-10e-4 -0.254,-0.004 -0.38,-0.004 -12.091,0 -21.892,9.801 -21.892,21.891 0,-7.556 6.126,-13.682 13.683,-13.682 l 20.751,0 c -2.062,-4.723 -6.715,-8.056 -12.162,-8.205 z" /><linearGradient
           y2="77.236702"
           x2="383.27109"
           y1="83.603996"
           x1="347.16019"
           gradientUnits="userSpaceOnUse"
           id="SVGID_10_"><stop
             id="stop159"
             style="stop-color:#524794"
             offset="0" /><stop
             id="stop161"
             style="stop-color:#51569E"
             offset="0.0536" /><stop
             id="stop163"
             style="stop-color:#4D71B2"
             offset="0.163" /><stop
             id="stop165"
             style="stop-color:#4988C3"
             offset="0.2781" /><stop
             id="stop167"
             style="stop-color:#4599CF"
             offset="0.3977" /><stop
             id="stop169"
             style="stop-color:#43A6D9"
             offset="0.5234" /><stop
             id="stop171"
             style="stop-color:#41AFDF"
             offset="0.6577" /><stop
             id="stop173"
             style="stop-color:#40B4E3"
             offset="0.8068" /><stop
             id="stop175"
             style="stop-color:#40B5E4"
             offset="1" /></linearGradient><path
           style="fill:url(#SVGID_10_)"
           id="path177"
           d="m 369.157,88.475 -12.314,0 0,-20.743 -9.576,0 0,15.27 c 0,1.947 0.408,3.797 1.141,5.473 l -0.001,0 c 0.001,0.004 0.004,0.006 0.005,0.011 0.057,0.127 0.113,0.253 0.172,0.378 l 0.002,0 c 2.145,4.516 6.688,7.67 11.984,7.816 0.127,10e-4 0.252,0.004 0.38,0.004 12.091,0 21.892,-9.801 21.892,-21.891 -10e-4,7.556 -6.128,13.682 -13.685,13.682 z" /><linearGradient
           y2="52.901901"
           x2="371.89499"
           y1="88.475098"
           x1="371.89499"
           gradientUnits="userSpaceOnUse"
           id="SVGID_11_"><stop
             id="stop180"
             style="stop-color:#EA690B"
             offset="0" /><stop
             id="stop182"
             style="stop-color:#EC7902"
             offset="0.08" /><stop
             id="stop184"
             style="stop-color:#F29A00"
             offset="0.2783" /><stop
             id="stop186"
             style="stop-color:#F7B200"
             offset="0.4734" /><stop
             id="stop188"
             style="stop-color:#FBC100"
             offset="0.6618" /><stop
             id="stop190"
             style="stop-color:#FDCB00"
             offset="0.8407" /><stop
             id="stop192"
             style="stop-color:#FECE00"
             offset="1" /></linearGradient><path
           style="fill:url(#SVGID_11_)"
           id="path194"
           d="m 360.949,52.902 c 7.556,0 13.683,6.125 13.683,13.682 l 0,1.148 -9.578,0 0,20.743 4.104,0 c 2.115,0 4.116,-0.479 5.902,-1.336 0.014,-0.007 0.027,-0.014 0.04,-0.02 0.087,-0.043 0.173,-0.084 0.258,-0.126 l 0,-0.003 c 4.334,-2.208 7.335,-6.654 7.478,-11.817 0.002,-0.127 0.006,-0.253 0.006,-0.38 -10e-4,-12.09 -9.802,-21.891 -21.893,-21.891 z" /><g
           id="g196"><g
             id="g198"><linearGradient
               y2="86.782898"
               x2="355.07401"
               y1="71.2407"
               x1="346.3179"
               gradientUnits="userSpaceOnUse"
               id="SVGID_12_"><stop
                 id="stop201"
                 style="stop-color:#A8143E"
                 offset="0" /><stop
                 id="stop203"
                 style="stop-color:#AF113E"
                 offset="0.0637" /><stop
                 id="stop205"
                 style="stop-color:#C3073F"
                 offset="0.2773" /><stop
                 id="stop207"
                 style="stop-color:#D1003F"
                 offset="0.4995" /><stop
                 id="stop209"
                 style="stop-color:#DA0040"
                 offset="0.7338" /><stop
                 id="stop211"
                 style="stop-color:#DC0040"
                 offset="1" /></linearGradient><path
               style="fill:url(#SVGID_12_)"
               id="path213"
               d="m 347.267,83.002 c 0,-13.374 9.576,-15.27 9.576,-15.27 l -9.576,0 0,-2.06 0,-3.422 c -4.723,2.064 -8.055,6.717 -8.203,12.164 -0.002,0.126 -0.006,0.253 -0.006,0.38 0,12.09 9.801,21.891 21.892,21.891 -7.557,-0.001 -13.683,-6.126 -13.683,-13.683 z" /></g></g></g></g><g
       id="g215"><g
         id="g217"><path
           style="fill:#5185c0"
           id="path219"
           d="m 42.356,54.804 15.551,0 0,49.156 c 1.381,0.346 3.456,0.52 5.873,0.52 l -0.171,11.748 c -2.246,0.434 -4.839,0.779 -8.812,0.779 -8.121,0 -12.441,-1.727 -12.441,-11.751 l 0,-50.452 z" /><path
           style="fill:#5185c0"
           id="path221"
           d="m 76.625,70.871 c -5.443,0 -9.33,-3.454 -9.33,-8.985 0,-5.527 3.887,-8.984 9.33,-8.984 5.617,0 9.331,3.457 9.331,8.984 0,5.531 -3.714,8.985 -9.331,8.985 z m 7.776,33.088 c 1.38,0.346 2.937,0.52 4.838,0.52 l -0.173,11.748 c -2.247,0.52 -5.011,0.779 -9.504,0.779 -7.776,0 -10.711,-2.074 -10.711,-9.158 l 0,-33.174 15.55,0 0,29.285 z" /><path
           style="fill:#5185c0"
           id="path223"
           d="m 140.491,94.889 c 0,13.131 -7.257,22.288 -24.882,22.288 -8.813,0 -14.859,-1.555 -20.042,-4.318 l 0,-58.055 15.549,0 0,22.722 c 2.678,-2.333 6.308,-3.715 11.232,-3.715 10.54,0 18.143,6.737 18.143,21.078 z m -15.725,0.346 c 0,-5.787 -2.765,-8.641 -6.738,-8.641 -4.491,0 -6.912,2.764 -6.912,7.086 l 0,9.332 c 1.038,0.688 2.938,1.38 5.702,1.38 5.357,0 7.948,-3.282 7.948,-9.157 z" /><path
           style="fill:#5185c0"
           id="path225"
           d="m 169.027,73.806 c -4.403,0 -7.773,2.422 -10.019,6.402 -2.158,-3.98 -5.528,-6.402 -10.193,-6.402 -1.104,0 -2.088,0.07 -2.931,0.174 l 0,42.161 15.545,0 0,-17.791 c 0,-8.736 4.142,-10.192 7.089,-10.192 2.246,0 3.457,0.333 4.316,0.685 l 0.86,-14.334 c -0.509,-0.263 -2.07,-0.703 -4.667,-0.703 z" /><path
           style="fill:#5185c0"
           id="path227"
           d="m 227.438,104.652 -0.172,11.663 c -1.037,0.259 -3.285,0.691 -6.74,0.691 -4.923,0 -8.379,-1.988 -10.625,-5.531 -2.764,3.369 -7.258,5.702 -13.736,5.702 -11.058,0 -18.66,-7.601 -18.66,-21.251 0,-13.822 8.812,-22.116 21.079,-22.116 4.406,0 7.862,1.036 10.54,2.418 l 0.518,-1.555 12.959,0 0,29.459 c 1.38,0.347 2.589,0.52 4.837,0.52 z m -20.388,-7.343 0,-8.121 c -1.643,-1.383 -3.888,-2.594 -6.912,-2.594 -4.838,0 -7.774,2.939 -7.774,9.332 0,5.875 3.109,8.466 7.257,8.466 4.319,0 7.429,-2.246 7.429,-7.083 z" /></g></g></g></svg>