<?xml version="1.0" encoding="UTF-8"?>
<!DOCTYPE svg PUBLIC "-//W3C//DTD SVG 1.1//EN" "http://www.w3.org/Graphics/SVG/1.1/DTD/svg11.dtd">
<!-- Creator: CorelDRAW X7 -->
<svg xmlns="http://www.w3.org/2000/svg" xml:space="preserve" version="1.1" style="shape-rendering:geometricPrecision; text-rendering:geometricPrecision; image-rendering:optimizeQuality; fill-rule:evenodd; clip-rule:evenodd"
viewBox="15000 7000 1 7000" width="100" height="30"
 xmlns:xlink="http://www.w3.org/1999/xlink">
 <defs>
  <style type="text/css">
   <![CDATA[
    .fil2 {fill:#2EADF5;fill-rule:nonzero}
    .fil1 {fill:#FFF;fill-rule:nonzero}
    .fil0 {fill:#FEFEFE;fill-rule:nonzero}
   ]]>
  </style>
 </defs>
 <g id="Warstwa_x0020_1">
  <metadata id="CorelCorpID_0Corel-Layer"/>
  <polygon class="fil0" points="17372,9752 24086,9752 24086,7688 17372,7688 "/>
  <path class="fil1" d="M5682 9752c86,11 155,23 235,34 74,-11 143,-23 234,-34 423,926 869,1812 1315,2692 457,-891 892,-1720 1343,-2692 86,11 166,23 246,34 74,-11 154,-23 234,-34 143,1332 298,2612 498,3933 -155,-23 -309,-34 -469,-34 -154,0 -309,11 -469,34 -40,-949 -166,-1812 -246,-2670 -434,869 -891,1818 -1269,2636 -34,0 -68,0 -114,0 -23,0 -57,0 -97,0 -458,-961 -841,-1721 -1252,-2579 -126,870 -235,2030 -246,2613 -103,-11 -177,-23 -269,-34 -80,11 -154,23 -268,34 223,-1263 434,-2750 594,-3933z"/>
  <path class="fil1" d="M12416 9986l-11 0c-921,23 -1275,858 -1275,1898 22,995 560,1521 1183,1521 1086,0 1286,-1241 1286,-1818 0,-938 -457,-1601 -1183,-1601zm-35 -331c1510,0 2179,960 2179,2041 0,1309 -995,2000 -2259,2058 -685,0 -2120,-332 -2132,-1955 12,-35 12,-58 12,-80 23,-915 594,-2064 2200,-2064z"/>
  <path class="fil1" d="M15617 9786c148,-11 257,-23 434,-34l0 3487c280,0 772,-23 1321,-80 -23,92 -35,166 -46,257 11,69 23,143 34,235l-2166 0 0 -3899c188,11 314,23 423,34z"/>
  <path class="fil2" d="M23945 8884l-675 0 -146 704 -315 0 146 -704 -673 0 53 -255 673 0 147 -704 315 0 -146 704 673 0 -52 255zm667 634l0 -1501c-6,-426 -352,-770 -779,-771l-5954 0c-431,1 -780,351 -780,782l0 3132 791 -872 5941 0c428,0 775,-344 781,-770zm-2395 -1328l-522 0 -292 1409 -304 0 293 -1409 -1244 0 -89 430 634 0 -52 255 -635 0 -98 469 785 0 -52 255 -1088 0 344 -1664 1043 0 1329 0 -52 255zm-3213 1409l-342 -737c-84,-179 -150,-339 -200,-479l-8 0c-16,138 -42,295 -79,474l-155 742 -303 0 344 -1664 295 0 342 738c84,178 151,337 200,478l8 0c11,-108 37,-266 79,-473l155 -743 303 0 -344 1664 -295 0z"/>
 </g>
</svg>
